<svg id="Слой_1" data-name="Слой 1" xmlns="http://www.w3.org/2000/svg" viewBox="0 0 200 200"><defs><style>.cls-1{fill:none;stroke:#000;stroke-linecap:square;stroke-miterlimit:10;stroke-dasharray:8.07 8.07;}.cls-2{font-size:26px;font-family:Phosphate-Inline, Phosphate;}</style></defs><title>logo</title><path d="M98.36,1.53a99,99,0,1,1-99,99,99.12,99.12,0,0,1,99-99m0-1a100,100,0,1,0,100,100,100,100,0,0,0-100-100Z" transform="translate(1.64 -0.53)"/><circle class="cls-1" cx="100" cy="100" r="95"/><path d="M11,74V73h4.57v1.35h-.29Zm4.57,21.26V96.6H11v-1l4.28-.36Zm-1-11.4c0-3.62,0-7.26-.08-10.85h2.08c-.09,3.56-.09,7.2-.09,11.06v.64c0,4.67,0,8.31.09,11.9H14.5c.08-3.56.08-7.2.08-10.85Zm1,0h3.24c4.57,0,6.88-1.89,6.88-5.17,0-2.89-1.79-4.53-6.27-4.53H15.54V73H20c5,0,7.5,2.28,7.5,5.62,0,2.85-2.1,5.39-6.92,5.85l.2-.3c5.59.23,7.91,2.81,7.91,6.11S26.1,96.6,20.17,96.6H15.54V95.49h4.3c4.45,0,6.91-1.89,6.91-5.26s-2.31-5.35-7.66-5.35H15.54Z" transform="translate(1.64 -0.53)"/><path d="M46.18,86.18a7.52,7.52,0,0,1-.22,2L33,88.14v-1l10.13,0c1,0,1.26-.53,1.26-1.53a4.68,4.68,0,0,0-4.69-4.9C36.6,80.69,34,83.6,34,88c0,5.3,2.87,7.66,6.26,7.66a6.8,6.8,0,0,0,5.26-2.34l.55.48a7.24,7.24,0,0,1-6.21,3.29c-4.19,0-7.73-2.88-7.73-8.68,0-5.33,3.6-8.74,7.67-8.74C43.68,79.63,46.18,82.42,46.18,86.18Z" transform="translate(1.64 -0.53)"/><path d="M50.9,85.77c1-3.53,3.24-5.8,7-5.8S65,82.6,65,88c0,6.23-3.68,9-7.33,9-4.65,0-7.56-3.34-7.56-10.7,0-5.39,1-9.92,3.1-11.77,1.56-1.41,3.15-1.86,5.84-2.33l4.33-.8.74-1.75.78.2A5.79,5.79,0,0,1,64,72.72c-.59.58-2.44.84-4.63,1.19-2.74.41-4.31.87-5.42,1.83C52.3,77.17,51.24,80.3,51,85.83ZM52,88.2C52,93,54.43,96,57.65,96s5.46-3.1,5.46-7.77c0-4.82-2.19-7.21-5.47-7.21S52,83.62,52,88.2Z" transform="translate(1.64 -0.53)"/><path d="M78.71,88.21c0,4.51,2.61,7.41,6.23,7.41a6.67,6.67,0,0,0,5.26-2.49l.57.38a6.65,6.65,0,0,1-6.17,3.54c-4.63,0-7.74-3.46-7.74-8.69,0-5.5,3.85-8.73,8-8.73a5.92,5.92,0,0,1,5.85,4,1,1,0,0,1-1.09.95,1.27,1.27,0,0,1-1.3-1l-1-2.79L88.67,82a6.45,6.45,0,0,0-3.81-1.29C81.35,80.69,78.71,83.58,78.71,88.21Z" transform="translate(1.64 -0.53)"/><path d="M93.64,80.09h15.73l.28,5.31h-1.1l-1-5.23,1,1H94.43l1-1-1,5.23h-1.1ZM97.4,95.68l3.86-.41h.49l3.85.41v.92H97.4Zm3.24-6.43V87.44c0-2.2,0-5.77-.1-7.35h1.93c-.07,1.58-.11,5.15-.11,7.35v1.81c0,2.2,0,5.77.11,7.35h-1.93C100.61,95,100.64,91.45,100.64,89.25Z" transform="translate(1.64 -0.53)"/><path d="M111,103.89a1.53,1.53,0,0,1,1.61-1,3.29,3.29,0,0,1,2.12,1l.92.79-1,.4-.74-.56c2.24-.47,4.08-2.76,5.2-5.84l1.11-3,5.61-15.54h1.31l-6.72,18c-1.91,5.08-4.1,7.38-6.7,7.38C112.39,105.45,111.13,104.9,111,103.89Zm3.41-22.55L111.12,81v-.91h7.42V81l-3.7.32ZM120,97.88l-7-17.79h2l5.83,15.7Zm5.82-16.54-3.5-.34v-.91h6.59V81l-2.62.34Z" transform="translate(1.64 -0.53)"/><path d="M129.1,96.6l1-1-.7,6.08h-1.1l-.1-6.08h17.49l-.11,6.08h-1.1l-.68-6.08,1,1Zm6.21-16.51h1.15A34,34,0,0,1,131,96.34l-1.28-.78A29.85,29.85,0,0,0,135.31,80.09Zm-2.85,0h3.38v1.32h-.4l-3-.41Zm3.38,0h5.88v1h-5.88Zm5,9.16V87.44c0-2.2,0-5.77-.1-7.35h1.93c-.07,1.58-.1,5.15-.1,7.35v1.81c0,2.2,0,5.77.1,7.35h-1.93C140.82,95,140.85,91.45,140.85,89.25Zm.87-9.16h3.74V81l-3.46.41h-.28Z" transform="translate(1.64 -0.53)"/><path d="M148.6,80.09h7.49V81l-3.46.41h-.49L148.6,81Zm0,15.59,3.51-.41h.5l3.48.41v.92H148.6Zm2.88-6.43V87.44c0-2.2,0-5.77-.1-7.35h1.76V96.6h-1.76C151.45,95,151.48,91.45,151.48,89.25Zm12.14-7.48,1.06.27-12,12.86-1.08-.25Zm-3.29-1.68h7.53V81l-3.48.41h-.49L160.33,81Zm0,15.59,3.53-.41h.5l3.5.41v.92h-7.53Zm3-15.59h1.73c-.07,1.58-.1,5.15-.1,7.35v1.81c0,2.2,0,5.77.1,7.35h-1.73Z" transform="translate(1.64 -0.53)"/><path d="M170,95.73l3.27-.43-1,.7,2.11-4.15c1-2,2.07-3,3.86-3.2l-.18.26c-4.17,0-5.69-2.07-5.69-4.4,0-2.59,1.88-4.42,5.7-4.42h4.2v1h-4.12c-2.8,0-4,1.35-4,3.36,0,2.47,1.56,3.75,4.45,3.75h3.71v1h-2.72c-1.78,0-2.39.6-3.37,2.5l-1.94,3.76c-.58,1.12-.86,1.41-2.28,1.41a8.49,8.49,0,0,1-2-.26Zm8.55,0,3.54-.41h.5l3.46.41v.92h-7.5Zm2.89-6.74v-1.5c0-2.2,0-5.77-.11-7.35h1.93c-.07,1.58-.1,5.15-.1,7.35v1.81c0,2.2,0,5.77.1,7.35h-1.93C181.38,95,181.42,91.45,181.42,88.94Zm.86-8.85H186V81l-3.55.41h-.2Z" transform="translate(1.64 -0.53)"/><text class="cls-2" transform="translate(59.59 126.04)">Webpro</text></svg>