<svg id="Фон" xmlns="http://www.w3.org/2000/svg" width="1440" height="3611.38" viewBox="0 0 1440 3611.38">
  <metadata><?xpacket begin="﻿" id="W5M0MpCehiHzreSzNTczkc9d"?>
<x:xmpmeta xmlns:x="adobe:ns:meta/" x:xmptk="Adobe XMP Core 5.6-c140 79.160451, 2017/05/06-01:08:21        ">
   <rdf:RDF xmlns:rdf="http://www.w3.org/1999/02/22-rdf-syntax-ns#">
      <rdf:Description rdf:about=""/>
   </rdf:RDF>
</x:xmpmeta>
                                                                                                    
                                                                                                    
                                                                                                    
                                                                                                    
                                                                                                    
                                                                                                    
                                                                                                    
                                                                                                    
                                                                                                    
                                                                                                    
                                                                                                    
                                                                                                    
                                                                                                    
                                                                                                    
                                                                                                    
                                                                                                    
                                                                                                    
                                                                                                    
                                                                                                    
                                                                                                    
                           
<?xpacket end="w"?></metadata>
<defs>
    <style>
      .cls-1 {
        fill: #505db4;
      }

      .cls-1, .cls-2 {
        fill-rule: evenodd;
      }

      .cls-2 {
        fill: #f787b4;
      }
    </style>
  </defs>
  <path id="Фон-2" data-name="Фон" class="cls-1" d="M6609.78,5409Q5880.885,5578.005,5152,5747v719l1457-375Q6609.39,5750.005,6609.78,5409Z" transform="translate(-5152 -2928)"/>
  <path id="Лево" class="cls-2" d="M5160.87,6016c-71.4,28.16-85.91,171.68-69.87,369,5.68,69.87,18.93,147.73,51.64,154,34.27,6.57,62.58-76.94,131.36-102,25.93-9.45,55.45-4.71,87-24,24.27-14.85,66.65-51.79,67-109,0.15-24.78-5.72-47.93-20-64-25.45-28.65-62.87-21.31-91-43-24.13-18.61-37.96-49.28-43-90-3.71-38.41-20.76-74.32-52-89A79.219,79.219,0,0,0,5160.87,6016Z" transform="translate(-5152 -2928)"/>
  <path id="Право" class="cls-2" d="M6387,5455c-39.52,8.96-74.7,13.12-114,23a867.323,867.323,0,0,0-93,29c1.44,15.76,2.95,32.38,4.28,47.24,1.7,18.9,3.43,36.56,6.72,52.76,5.12,25.18,14.81,40.84,20,66,13.29,64.48-25.33,104.45-4,159,15.96,40.81,57.71,73.71,99,83,65.48,14.72,113.4-34.75,184-10a137.5,137.5,0,0,1,27,13c38.73,23.99,63.54,64.94,75,114V5408c-34.21,5.3-67.9,11.91-102,20C6454.21,5436.49,6422.87,5446.87,6387,5455Z" transform="translate(-5152 -2928)"/>
  <path id="Фигура_5" data-name="Фигура 5" class="cls-2" d="M6883,5680" transform="translate(-5152 -2928)"/>
</svg>
